<svg width="25" height="25" viewBox="0 0 25 25" fill="none" xmlns="http://www.w3.org/2000/svg">
<path d="M10.9047 11.5256C10.9547 11.1956 11.0647 10.9056 11.2047 10.6656C11.5047 10.1056 12.0147 9.81565 12.7047 9.80565C13.1547 9.80565 13.5647 10.0056 13.8547 10.2956C14.1347 10.6056 14.3247 11.0356 14.3247 11.4656H16.1247C16.1047 10.9956 16.0147 10.5656 15.8247 10.1656C15.6747 9.78565 15.4447 9.44565 15.1447 9.16565C13.6947 7.82565 11.0047 8.01565 9.77471 9.53565C8.48471 11.2056 8.45471 14.1256 9.76471 15.7956C10.9747 17.2856 13.6247 17.4956 15.0647 16.1656C15.3747 15.9156 15.6247 15.6056 15.8247 15.2456C15.9847 14.8856 16.0947 14.5056 16.1047 14.0956H14.3247C14.3247 14.3056 14.2547 14.4956 14.1647 14.6656C14.0747 14.8556 13.9547 15.0056 13.8247 15.1356C13.4947 15.3956 13.1047 15.5356 12.6847 15.5356C12.3247 15.5256 12.0247 15.4556 11.7947 15.3056C11.5447 15.1656 11.3247 14.9356 11.2047 14.6656C10.7047 13.7656 10.7847 12.5156 10.9047 11.5256ZM12.8247 2.66565C7.32471 2.66565 2.82471 7.16565 2.82471 12.6656C3.35471 25.9356 22.3247 25.9256 22.8247 12.6656C22.8247 7.16565 18.3247 2.66565 12.8247 2.66565ZM12.8247 20.6656C8.41471 20.6656 4.82471 17.0756 4.82471 12.6656C5.26471 2.05565 20.3847 2.05565 20.8247 12.6656C20.8247 17.0756 17.2347 20.6656 12.8247 20.6656Z" fill="black"/>
</svg>
