<svg width="25" height="25" viewBox="0 0 25 25" fill="none" xmlns="http://www.w3.org/2000/svg">
<path d="M7.95302 2.56348H16.353C19.553 2.56348 22.153 5.16348 22.153 8.36348V16.7635C22.153 18.3017 21.5419 19.777 20.4542 20.8647C19.3665 21.9524 17.8913 22.5635 16.353 22.5635H7.95302C4.75302 22.5635 2.15302 19.9635 2.15302 16.7635V8.36348C2.15302 6.82522 2.76408 5.34997 3.8518 4.26226C4.93951 3.17455 6.41476 2.56348 7.95302 2.56348M7.75302 4.56348C6.79824 4.56348 5.88256 4.94276 5.20743 5.61789C4.5323 6.29302 4.15302 7.2087 4.15302 8.16348V16.9635C4.15302 18.9535 5.76302 20.5635 7.75302 20.5635H16.553C17.5078 20.5635 18.4235 20.1842 19.0986 19.5091C19.7737 18.8339 20.153 17.9183 20.153 16.9635V8.16348C20.153 6.17348 18.543 4.56348 16.553 4.56348H7.75302ZM17.403 6.06348C17.7345 6.06348 18.0525 6.19517 18.2869 6.42959C18.5213 6.66401 18.653 6.98196 18.653 7.31348C18.653 7.645 18.5213 7.96294 18.2869 8.19736C18.0525 8.43178 17.7345 8.56348 17.403 8.56348C17.0715 8.56348 16.7536 8.43178 16.5191 8.19736C16.2847 7.96294 16.153 7.645 16.153 7.31348C16.153 6.98196 16.2847 6.66401 16.5191 6.42959C16.7536 6.19517 17.0715 6.06348 17.403 6.06348ZM12.153 7.56348C13.4791 7.56348 14.7509 8.09026 15.6885 9.02794C16.6262 9.96562 17.153 11.2374 17.153 12.5635C17.153 13.8896 16.6262 15.1613 15.6885 16.099C14.7509 17.0367 13.4791 17.5635 12.153 17.5635C10.8269 17.5635 9.55516 17.0367 8.61748 16.099C7.6798 15.1613 7.15302 13.8896 7.15302 12.5635C7.15302 11.2374 7.6798 9.96562 8.61748 9.02794C9.55516 8.09026 10.8269 7.56348 12.153 7.56348M12.153 9.56348C11.3574 9.56348 10.5943 9.87955 10.0317 10.4422C9.46909 11.0048 9.15302 11.7678 9.15302 12.5635C9.15302 13.3591 9.46909 14.1222 10.0317 14.6848C10.5943 15.2474 11.3574 15.5635 12.153 15.5635C12.9487 15.5635 13.7117 15.2474 14.2743 14.6848C14.8369 14.1222 15.153 13.3591 15.153 12.5635C15.153 11.7678 14.8369 11.0048 14.2743 10.4422C13.7117 9.87955 12.9487 9.56348 12.153 9.56348Z" fill="black"/>
</svg>
