<svg width="160" height="21" viewBox="0 0 160 21" fill="none" xmlns="http://www.w3.org/2000/svg">
<path d="M45.8823 16.1801L53.1529 20.1325L51.2235 12.6834L57.647 7.67152L49.1882 7.01457L45.8823 0L42.5765 7.01457L34.1176 7.67152L40.5294 12.6834L38.6118 20.1325L45.8823 16.1801Z" fill="#F8EE04"/>
<path d="M114.118 16.1801L121.388 20.1325L119.459 12.6834L125.882 7.67152L117.424 7.01457L114.118 0L110.812 7.01457L102.353 7.67152L108.765 12.6834L106.847 20.1325L114.118 16.1801Z" fill="#F8EE04"/>
<path d="M148.235 14.1987V4.34437L150.247 8.61457L155.4 9.00662L151.494 12.0689L152.659 16.604M160 7.67152L151.541 7.02517L148.235 0L144.929 7.02517L136.471 7.67152L142.882 12.6834L140.965 20.1325L148.235 16.1801L155.506 20.1325L153.576 12.6834L160 7.67152Z" fill="#F8EE04"/>
<path d="M11.7647 16.1801L19.0353 20.1325L17.1059 12.6834L23.5294 7.67152L15.0706 7.01457L11.7647 0L8.45882 7.01457L0 7.67152L6.41176 12.6834L4.49412 20.1325L11.7647 16.1801Z" fill="#F8EE04"/>
<path d="M79.9999 16.1801L87.2705 20.1325L85.3411 12.6834L91.7646 7.67152L83.3058 7.01457L79.9999 0L76.694 7.01457L68.2352 7.67152L74.647 12.6834L72.7293 20.1325L79.9999 16.1801Z" fill="#F8EE04"/>
</svg>
