<svg width="2202" height="572" viewBox="0 0 2202 572" fill="none" xmlns="http://www.w3.org/2000/svg">
<path d="M224.342 221.971C217.614 209.175 215.227 198.793 216.653 190.415C218.112 181.846 223.453 175.949 230.782 172.025C238.009 168.155 247.31 166.109 257.241 165.08C267.215 164.047 278.072 164.018 288.553 164.338C295.384 164.548 302.14 164.909 308.399 165.245C311.712 165.422 314.887 165.592 317.858 165.728C326.611 166.128 333.471 166.222 337.613 165.507C338.618 165.334 339.352 165.129 339.859 164.922C339.975 164.875 340.071 164.831 340.149 164.791C340.097 164.685 340.024 164.553 339.923 164.393C339.188 163.233 337.535 161.501 334.489 159.1C331.5 156.743 327.373 153.897 321.922 150.476C234.862 95.8415 129.225 109.49 85.4754 179.204C41.4407 249.374 64.3224 366.862 161.79 404.304C189.939 412.237 210.343 410.013 224.572 401.52C238.817 393.018 247.513 377.848 251.407 358.533C259.222 319.767 247.349 265.731 224.342 221.971Z" fill="#E77F45" stroke="black" stroke-width="6"/>
<path d="M406.562 474.166C439.096 452.39 459.076 423.723 467.584 391.243C476.102 358.724 473.172 322.171 459.492 284.628C441.855 236.226 392.51 209.861 348.372 201.499C326.336 197.324 306.005 197.727 292.036 201.888C285.041 203.971 279.922 206.913 276.887 210.41C273.965 213.776 272.826 217.806 273.986 222.733C275.555 229.393 277.309 236.323 279.105 243.421C282.24 255.808 285.506 268.71 288.145 281.598C292.315 301.951 295.03 322.709 293.369 342.36C291.703 362.058 285.632 380.721 272.18 396.741C259.045 412.383 239.074 425.267 209.909 434.24C209.724 446.691 216.723 457.977 229.073 467.499C242.096 477.54 260.728 485.311 281.748 489.949C323.893 499.248 374.384 495.704 406.562 474.166Z" fill="#E77F45" stroke="black" stroke-width="6"/>
<path d="M296.646 38.4177L336.289 137.054L249.925 75.0708L296.646 38.4177Z" fill="#E77F45" stroke="black" stroke-width="6"/>
<path d="M401.555 170.252L371.939 185.136L378.366 152.619L401.555 170.252Z" fill="#E77F45" stroke="black" stroke-width="6"/>
<path d="M114.468 434.966L179.396 429.615L122.647 461.613L114.468 434.966Z" fill="#E77F45" stroke="black" stroke-width="6"/>
<path d="M421.619 125.544L366.095 117.923L408.472 81.2452L421.619 125.544Z" fill="#E77F45" stroke="black" stroke-width="6"/>
<path d="M154.593 525.968L195.435 444.576L208.854 534.647L154.593 525.968Z" fill="#E77F45" stroke="black" stroke-width="6"/>
<g filter="url(#filter0_i_160_15)">
<path d="M1408.42 298.52C1409.49 293.933 1413.97 291.64 1421.86 291.64C1429.75 291.64 1434.87 291.053 1437.22 289.88C1438.5 290.52 1439.67 291.853 1440.74 293.88C1441.81 295.8 1442.34 297.88 1442.34 300.12C1442.34 308.227 1435.89 312.28 1422.98 312.28C1422.66 312.28 1422.34 312.28 1422.02 312.28C1427.89 317.613 1434.23 322.733 1441.06 327.64L1443.94 329.72C1443.83 329.933 1443.67 330.253 1443.46 330.68C1443.35 331.107 1442.93 331.853 1442.18 332.92C1441.54 333.987 1440.74 334.947 1439.78 335.8C1437.11 337.933 1433.75 339 1429.7 339C1423.19 339 1415.94 335.373 1407.94 328.12C1402.82 335.373 1394.5 339 1382.98 339C1371.46 339 1362.77 336.12 1356.9 330.36C1351.14 324.493 1348.26 317.4 1348.26 309.08C1348.26 300.653 1350.13 294.093 1353.86 289.4C1357.59 284.707 1362.18 281.507 1367.62 279.8C1363.03 270.947 1360.74 262.307 1360.74 253.88C1360.74 245.347 1363.3 238.2 1368.42 232.44C1373.65 226.573 1381.59 223.64 1392.26 223.64C1413.38 223.64 1423.94 233.827 1423.94 254.2C1423.94 265.827 1421.17 274.36 1415.62 279.8C1411.14 284.28 1406.66 286.52 1402.18 286.52C1401.01 286.52 1399.83 286.36 1398.66 286.04C1401.22 289.88 1404.47 294.04 1408.42 298.52ZM1389.22 260.6C1389.22 267.107 1391.46 274.147 1395.94 281.72C1400.21 277.24 1402.34 270.147 1402.34 260.44C1402.34 256.173 1401.7 252.973 1400.42 250.84C1399.25 248.707 1397.7 247.64 1395.78 247.64C1391.41 247.64 1389.22 251.96 1389.22 260.6ZM1375.94 304.28C1375.94 314.84 1381.43 320.12 1392.42 320.12C1394.77 320.12 1397.01 319.96 1399.14 319.64L1392.26 312.44C1386.29 306.36 1381.11 300.28 1376.74 294.2C1376.21 296.44 1375.94 299.8 1375.94 304.28Z" fill="black"/>
<path d="M704.098 188.34C705.064 197.427 705.548 203.517 705.548 206.61C705.548 209.703 705.451 212.893 705.258 216.18C705.258 219.467 704.581 222.85 703.228 226.33C701.874 229.617 700.038 232.807 697.718 235.9C693.271 241.893 685.248 244.89 673.648 244.89C665.721 244.89 659.244 243.053 654.218 239.38C649.384 235.513 644.744 230.003 640.298 222.85C636.238 236.963 634.208 253.493 634.208 272.44C634.208 295.64 639.911 312.653 651.318 323.48C657.118 329.087 664.561 331.89 673.648 331.89C682.734 331.89 693.078 329.57 704.678 324.93C706.031 330.537 706.128 336.337 704.968 342.33C703.808 348.13 701.971 353.06 699.458 357.12C696.944 361.18 693.754 364.66 689.888 367.56C680.608 374.52 667.171 378 649.578 378C622.511 378 602.404 368.913 589.258 350.74C584.424 343.973 580.461 335.08 577.368 324.06C574.274 312.847 572.728 300.087 572.728 285.78C572.728 260.84 577.561 240.443 587.228 224.59C597.088 208.737 609.074 197.33 623.188 190.37C625.121 186.117 628.311 182.057 632.758 178.19C637.398 174.323 643.584 172.39 651.318 172.39C659.244 172.39 668.234 175.097 678.288 180.51C688.341 185.73 696.944 188.34 704.098 188.34ZM821.285 178.19C831.338 172.777 841.585 170.07 852.025 170.07C862.465 170.07 869.812 172.777 874.065 178.19C878.318 183.41 880.445 193.85 880.445 209.51C880.445 216.857 878.802 243.15 875.515 288.39C872.422 333.63 870.875 360.407 870.875 368.72C862.562 374.713 852.315 377.71 840.135 377.71C827.955 377.71 821.768 372.683 821.575 362.63C821.962 351.223 822.348 337.787 822.735 322.32H781.265C781.072 332.18 780.975 348.42 780.975 371.04C774.402 375.487 764.348 377.71 750.815 377.71C744.822 377.71 739.988 376.163 736.315 373.07C732.642 369.977 730.612 365.723 730.225 360.31L720.945 185.15C735.058 176.643 747.142 172.39 757.195 172.39C767.442 172.39 774.498 175.193 778.365 180.8C782.425 186.407 784.455 197.137 784.455 212.99C784.455 217.05 784.068 229.133 783.295 249.24C782.522 269.347 782.038 283.17 781.845 290.71C786.872 288.777 791.318 287.713 795.185 287.52C799.052 287.327 808.428 287.037 823.315 286.65C823.315 240.057 822.832 207.577 821.865 189.21L821.285 178.19ZM910.397 243.15C898.99 243.15 893.287 232.323 893.287 210.67C893.287 204.677 893.963 198.683 895.317 192.69L898.507 175.87C921.127 172.003 940.17 170.07 955.637 170.07C962.597 170.07 968.01 172.487 971.877 177.32C975.937 182.153 978.257 187.373 978.837 192.98C979.417 198.587 979.707 203.13 979.707 206.61C979.707 216.663 978.933 225.46 977.387 233L975.937 240.25C971.297 240.25 967.913 240.347 965.787 240.54L960.277 333.92C965.497 334.113 969.267 335.66 971.587 338.56C974.1 341.46 975.357 344.747 975.357 348.42C975.357 356.927 973.81 364.853 970.717 372.2L968.687 376.55C953.027 377.517 936.4 378 918.807 378C913.587 378 909.333 376.647 906.047 373.94C902.953 371.233 901.02 368.043 900.247 364.37C899.667 360.697 899.377 357.893 899.377 355.96C899.377 350.16 899.763 345.713 900.537 342.62L901.697 338.56L913.297 337.11L910.397 243.15ZM1020.62 172.39C1027.19 172.39 1032.9 173.937 1037.73 177.03C1042.56 179.93 1046.72 185.633 1050.2 194.14C1058.9 178.48 1071.08 170.65 1086.74 170.65C1106.85 170.65 1121.64 176.547 1131.11 188.34C1140.58 199.94 1145.32 218.5 1145.32 244.02C1145.32 269.54 1138.84 291.193 1125.89 308.98C1112.94 326.767 1095.44 335.66 1073.4 335.66C1065.28 335.66 1059.19 334.887 1055.13 333.34C1052.81 349.773 1049.14 361.373 1044.11 368.14C1039.28 374.713 1032.41 378 1023.52 378C1018.49 378 1013.47 377.033 1008.44 375.1C1003.41 372.973 999.643 370.847 997.129 368.72L993.359 365.82C995.293 357.313 996.259 337.593 996.259 306.66C996.259 260.067 995.486 222.657 993.939 194.43L993.069 181.96C998.869 175.58 1008.05 172.39 1020.62 172.39ZM1057.16 231.26C1057.93 242.86 1058.32 255.91 1058.32 270.41C1058.32 284.91 1057.93 298.443 1057.16 311.01C1067.21 308.497 1075.04 303.277 1080.65 295.35C1086.26 287.23 1089.06 277.08 1089.06 264.9C1089.06 252.72 1085.87 244.117 1079.49 239.09C1073.3 233.87 1065.96 231.26 1057.45 231.26H1057.16ZM1291.85 317.1C1291.85 334.887 1285.76 349.483 1273.58 360.89C1261.4 372.297 1243.91 378 1221.09 378C1198.28 378 1182.23 374.713 1172.95 368.14C1163.67 361.373 1159.03 353.93 1159.03 345.81C1159.03 338.463 1160 333.147 1161.93 329.86C1165.22 324.253 1168.41 320.483 1171.5 318.55C1179.04 324.157 1187.65 329.28 1197.31 333.92C1207.17 338.56 1214.62 340.88 1219.64 340.88C1224.67 340.88 1228.25 340.397 1230.37 339.43C1232.5 338.463 1233.76 337.497 1234.14 336.53C1234.53 335.37 1234.72 333.823 1234.72 331.89C1234.72 328.217 1232.11 324.737 1226.89 321.45C1221.67 317.97 1215.29 314.49 1207.75 311.01C1200.41 307.337 1193.06 303.277 1185.71 298.83C1178.37 294.19 1172.08 287.907 1166.86 279.98C1161.64 272.053 1159.03 263.353 1159.03 253.88C1159.03 244.213 1161.26 235.32 1165.7 227.2C1170.15 219.08 1175.76 212.41 1182.52 207.19C1182.91 197.91 1188.42 189.597 1199.05 182.25C1209.88 174.903 1224.67 171.23 1243.42 171.23C1277.84 171.23 1295.04 185.633 1295.04 214.44C1295.04 232.033 1287.31 244.02 1271.84 250.4C1261.21 238.8 1241.39 230.293 1212.39 224.88C1213.17 236.093 1218.77 245.373 1229.21 252.72C1234.05 256.007 1239.27 259.197 1244.87 262.29C1250.48 265.19 1255.99 268.283 1261.4 271.57C1267.01 274.857 1272.13 278.433 1276.77 282.3C1286.83 291 1291.85 302.6 1291.85 317.1ZM1615.06 178.77C1620.67 172.97 1629.66 170.07 1642.03 170.07C1654.6 170.07 1663.49 172.777 1668.71 178.19C1673.93 183.603 1676.54 193.463 1676.54 207.77C1676.54 221.883 1674.9 248.08 1671.61 286.36C1668.52 324.64 1666.97 352.093 1666.97 368.72C1659.24 374.713 1648.32 377.71 1634.2 377.71C1627.63 377.71 1623.18 376.453 1620.86 373.94C1603.27 370.46 1584.13 332.857 1563.44 261.13C1562.09 301.343 1561.41 337.98 1561.41 371.04C1557.74 375.487 1548.94 377.71 1535.02 377.71C1521.3 377.71 1514.14 371.91 1513.56 360.31L1504.28 185.15C1518.4 176.643 1531.06 172.39 1542.27 172.39C1547.88 172.39 1552.33 173.357 1555.61 175.29C1558.32 174.517 1560.83 174.13 1563.15 174.13C1571.47 174.13 1577.56 178.287 1581.42 186.6C1585.29 194.72 1589.83 208.833 1595.05 228.94C1600.27 249.047 1603.56 261.807 1604.91 267.22C1606.46 272.44 1608.49 279.787 1611 289.26C1613.52 298.733 1616.03 307.917 1618.54 316.81C1618.93 299.99 1619.12 285.297 1619.12 272.73C1619.12 237.737 1618.25 211.54 1616.51 194.14L1615.06 178.77ZM1692.8 274.47C1692.8 265.19 1693.57 256.103 1695.12 247.21C1696.66 238.123 1698.21 231.453 1699.76 227.2L1702.08 220.53L1697.15 198.49C1698.5 194.43 1701.79 190.467 1707.01 186.6C1712.81 182.54 1721.8 180.51 1733.98 180.51C1746.16 180.51 1754.66 182.54 1759.5 186.6C1764.52 190.66 1767.04 196.557 1767.04 204.29C1767.04 208.35 1765.39 218.5 1762.11 234.74C1758.82 250.98 1757.18 268.187 1757.18 286.36C1757.18 304.533 1759.01 318.743 1762.69 328.99C1766.55 339.237 1771.87 344.36 1778.64 344.36C1785.6 344.36 1791.11 339.43 1795.17 329.57C1799.42 319.71 1801.55 305.21 1801.55 286.07C1801.55 266.93 1800.1 249.047 1797.2 232.42C1794.49 215.6 1791.69 203.517 1788.79 196.17L1784.73 185.15C1784.73 184.57 1785.4 183.41 1786.76 181.67C1788.3 179.93 1789.95 178.48 1791.69 177.32C1796.33 174.613 1802.42 173.26 1809.96 173.26C1841.86 173.26 1857.81 201.873 1857.81 259.1C1857.81 283.847 1855 305.017 1849.4 322.61C1843.79 340.01 1834.32 353.93 1820.98 364.37C1807.83 374.617 1791.01 379.74 1770.52 379.74C1743.64 379.74 1723.92 370.267 1711.36 351.32C1698.98 332.373 1692.8 306.757 1692.8 274.47ZM1983.53 179.35C1985.66 183.41 1986.72 192.303 1986.72 206.03C1986.72 219.563 1985.08 229.52 1981.79 235.9C1978.7 242.087 1973.38 245.18 1965.84 245.18H1953.08C1953.66 300.087 1955.89 341.557 1959.75 369.59C1950.28 375.197 1938.49 378 1924.37 378C1916.25 378 1909.49 376.357 1904.07 373.07C1898.85 369.783 1896.34 365.53 1896.53 360.31C1896.53 332.083 1898.08 293.223 1901.17 243.73C1888.61 244.117 1879.23 244.6 1873.04 245.18C1868.02 240.54 1865.5 231.163 1865.5 217.05C1865.5 202.743 1867.92 192.013 1872.75 184.86C1877.59 177.513 1885.22 173.84 1895.66 173.84C1896.63 173.84 1899.72 173.84 1904.94 173.84C1918.09 173.84 1939.55 175.193 1969.32 177.9L1983.53 179.35ZM2122.77 317.1C2122.77 334.887 2116.68 349.483 2104.5 360.89C2092.32 372.297 2074.82 378 2052.01 378C2029.2 378 2013.15 374.713 2003.87 368.14C1994.59 361.373 1989.95 353.93 1989.95 345.81C1989.95 338.463 1990.92 333.147 1992.85 329.86C1996.14 324.253 1999.33 320.483 2002.42 318.55C2009.96 324.157 2018.56 329.28 2028.23 333.92C2038.09 338.56 2045.53 340.88 2050.56 340.88C2055.59 340.88 2059.16 340.397 2061.29 339.43C2063.42 338.463 2064.67 337.497 2065.06 336.53C2065.45 335.37 2065.64 333.823 2065.64 331.89C2065.64 328.217 2063.03 324.737 2057.81 321.45C2052.59 317.97 2046.21 314.49 2038.67 311.01C2031.32 307.337 2023.98 303.277 2016.63 298.83C2009.28 294.19 2003 287.907 1997.78 279.98C1992.56 272.053 1989.95 263.353 1989.95 253.88C1989.95 244.213 1992.17 235.32 1996.62 227.2C2001.07 219.08 2006.67 212.41 2013.44 207.19C2013.83 197.91 2019.34 189.597 2029.97 182.25C2040.8 174.903 2055.59 171.23 2074.34 171.23C2108.75 171.23 2125.96 185.633 2125.96 214.44C2125.96 232.033 2118.23 244.02 2102.76 250.4C2092.13 238.8 2072.31 230.293 2043.31 224.88C2044.08 236.093 2049.69 245.373 2060.13 252.72C2064.96 256.007 2070.18 259.197 2075.79 262.29C2081.4 265.19 2086.91 268.283 2092.32 271.57C2097.93 274.857 2103.05 278.433 2107.69 282.3C2117.74 291 2122.77 302.6 2122.77 317.1Z" fill="black"/>
</g>
<defs>
<filter id="filter0_i_160_15" x="572.728" y="170.07" width="1553.23" height="213.67" filterUnits="userSpaceOnUse" color-interpolation-filters="sRGB">
<feFlood flood-opacity="0" result="BackgroundImageFix"/>
<feBlend mode="normal" in="SourceGraphic" in2="BackgroundImageFix" result="shape"/>
<feColorMatrix in="SourceAlpha" type="matrix" values="0 0 0 0 0 0 0 0 0 0 0 0 0 0 0 0 0 0 127 0" result="hardAlpha"/>
<feOffset dy="4"/>
<feGaussianBlur stdDeviation="2"/>
<feComposite in2="hardAlpha" operator="arithmetic" k2="-1" k3="1"/>
<feColorMatrix type="matrix" values="0 0 0 0 0 0 0 0 0 0 0 0 0 0 0 0 0 0 0.25 0"/>
<feBlend mode="normal" in2="shape" result="effect1_innerShadow_160_15"/>
</filter>
</defs>
</svg>
